<svg xmlns="http://www.w3.org/2000/svg" xmlns:xlink="http://www.w3.org/1999/xlink" xmlns:lucid="lucid" width="1040" height="1000"><g transform="translate(-140 -140)" lucid:page-tab-id="0_0"><path d="M0 0h1760v1360H0z" fill="#fff"/><path d="M160 246c0-3.3 2.7-6 6-6h148c3.3 0 6 2.7 6 6v108c0 3.3-2.7 6-6 6H166c-3.3 0-6-2.7-6-6z" stroke="#ef8d22" stroke-width="3" fill="#fff"/><use xlink:href="#a" transform="matrix(1,0,0,1,172,252) translate(34.64 56)"/><path d="M440 246c0-3.3 2.7-6 6-6h148c3.3 0 6 2.7 6 6v108c0 3.3-2.7 6-6 6H446c-3.3 0-6-2.7-6-6z" stroke="#ef8d22" stroke-width="3" fill="#fff"/><use xlink:href="#b" transform="matrix(1,0,0,1,452,252) translate(51.85333333333334 56)"/><path d="M720 246c0-3.3 2.7-6 6-6h148c3.3 0 6 2.7 6 6v108c0 3.3-2.7 6-6 6H726c-3.3 0-6-2.7-6-6z" stroke="#ef8d22" stroke-width="3" fill="#fff"/><use xlink:href="#c" transform="matrix(1,0,0,1,732,252) translate(47.2 56)"/><path d="M1000 246c0-3.3 2.7-6 6-6h148c3.3 0 6 2.7 6 6v108c0 3.3-2.7 6-6 6h-148c-3.3 0-6-2.7-6-6z" stroke="#ef8d22" stroke-width="3" fill="#fff"/><use xlink:href="#d" transform="matrix(1,0,0,1,1012,252) translate(47.2 56)"/><path d="M260 274.33c0-3.3 2.7-6 6-6h228c3.3 0 6 2.7 6 6v51.34c0 3.3-2.7 6-6 6H266c-3.3 0-6-2.7-6-6z" stroke="#000" stroke-opacity="0" stroke-width="3" fill="#fff" fill-opacity="0"/><use xlink:href="#e" transform="matrix(1,0,0,1,265,273.3333333333333) translate(106.49333333333334 33.5)"/><path d="M540 277.67c0-3.32 2.7-6 6-6h228c3.3 0 6 2.68 6 6v48c0 3.3-2.7 6-6 6H546c-3.3 0-6-2.7-6-6z" stroke="#000" stroke-opacity="0" stroke-width="3" fill="#fff" fill-opacity="0"/><use xlink:href="#f" transform="matrix(1,0,0,1,545,276.66666666666674) translate(108.45333333333333 32.5)"/><path d="M820 277.67c0-3.32 2.7-6 6-6h228c3.3 0 6 2.68 6 6v48c0 3.3-2.7 6-6 6H826c-3.3 0-6-2.7-6-6z" stroke="#000" stroke-opacity="0" stroke-width="3" fill="#fff" fill-opacity="0"/><use xlink:href="#g" transform="matrix(1,0,0,1,825,276.66666666666674) translate(109.22666666666667 32.5)"/><path d="M160 166c0-3.3 2.7-6 6-6h228c3.3 0 6 2.7 6 6v51.33c0 3.32-2.7 6-6 6H166c-3.3 0-6-2.68-6-6z" stroke="#000" stroke-opacity="0" stroke-width="3" fill="#fff" fill-opacity="0"/><use xlink:href="#h" transform="matrix(1,0,0,1,165,165) translate(0 20)"/><use xlink:href="#i" transform="matrix(1,0,0,1,165,165) translate(0 46.666666666666664)"/><path d="M160 446c0-3.3 2.7-6 6-6h148c3.3 0 6 2.7 6 6v108c0 3.3-2.7 6-6 6H166c-3.3 0-6-2.7-6-6z" stroke="#ef8d22" stroke-width="3" fill="#fff"/><use xlink:href="#j" transform="matrix(1,0,0,1,172,452) translate(47.2 56)"/><path d="M440 446c0-3.3 2.7-6 6-6h148c3.3 0 6 2.7 6 6v108c0 3.3-2.7 6-6 6H446c-3.3 0-6-2.7-6-6zM720 446c0-3.3 2.7-6 6-6h148c3.3 0 6 2.7 6 6v108c0 3.3-2.7 6-6 6H726c-3.3 0-6-2.7-6-6z" stroke="#ef8d22" stroke-width="3" fill="#fff"/><use xlink:href="#k" transform="matrix(1,0,0,1,732,452) translate(47.2 56)"/><path d="M1000 446c0-3.3 2.7-6 6-6h148c3.3 0 6 2.7 6 6v108c0 3.3-2.7 6-6 6h-148c-3.3 0-6-2.7-6-6z" stroke="#ef8d22" stroke-width="3" fill="#fff"/><path d="M260 474.33c0-3.3 2.7-6 6-6h228c3.3 0 6 2.7 6 6v51.34c0 3.3-2.7 6-6 6H266c-3.3 0-6-2.7-6-6z" stroke="#000" stroke-opacity="0" stroke-width="3" fill="#fff" fill-opacity="0"/><use xlink:href="#l" transform="matrix(1,0,0,1,265,473.3333333333333) translate(106.49333333333334 33.5)"/><path d="M540 477.67c0-3.32 2.7-6 6-6h228c3.3 0 6 2.68 6 6v48c0 3.3-2.7 6-6 6H546c-3.3 0-6-2.7-6-6z" stroke="#000" stroke-opacity="0" stroke-width="3" fill="#fff" fill-opacity="0"/><use xlink:href="#m" transform="matrix(1,0,0,1,545,476.66666666666674) translate(108.45333333333333 32.5)"/><path d="M820 477.67c0-3.32 2.7-6 6-6h228c3.3 0 6 2.68 6 6v48c0 3.3-2.7 6-6 6H826c-3.3 0-6-2.7-6-6z" stroke="#000" stroke-opacity="0" stroke-width="3" fill="#fff" fill-opacity="0"/><use xlink:href="#n" transform="matrix(1,0,0,1,825,476.66666666666674) translate(109.22666666666667 32.5)"/><path d="M160 726c0-3.3 2.7-6 6-6h148c3.3 0 6 2.7 6 6v108c0 3.3-2.7 6-6 6H166c-3.3 0-6-2.7-6-6z" stroke="#ef8d22" stroke-width="3" fill="#fff"/><use xlink:href="#j" transform="matrix(1,0,0,1,172,732) translate(47.2 56)"/><path d="M440 726c0-3.3 2.7-6 6-6h148c3.3 0 6 2.7 6 6v108c0 3.3-2.7 6-6 6H446c-3.3 0-6-2.7-6-6z" stroke="#ef8d22" stroke-width="3" fill="#fff"/><use xlink:href="#o" transform="matrix(1,0,0,1,452,732) translate(56.93333333333334 56)"/><path d="M720 726c0-3.3 2.7-6 6-6h148c3.3 0 6 2.7 6 6v108c0 3.3-2.7 6-6 6H726c-3.3 0-6-2.7-6-6z" stroke="#ef8d22" stroke-width="3" fill="#fff"/><use xlink:href="#k" transform="matrix(1,0,0,1,732,732) translate(47.2 56)"/><path d="M1000 726c0-3.3 2.7-6 6-6h148c3.3 0 6 2.7 6 6v108c0 3.3-2.7 6-6 6h-148c-3.3 0-6-2.7-6-6z" stroke="#ef8d22" stroke-width="3" fill="#fff"/><path d="M260 754.33c0-3.3 2.7-6 6-6h228c3.3 0 6 2.7 6 6v51.34c0 3.3-2.7 6-6 6H266c-3.3 0-6-2.7-6-6z" stroke="#000" stroke-opacity="0" stroke-width="3" fill="#fff" fill-opacity="0"/><use xlink:href="#l" transform="matrix(1,0,0,1,265,753.3333333333334) translate(106.49333333333334 33.5)"/><path d="M540 757.67c0-3.32 2.7-6 6-6h228c3.3 0 6 2.68 6 6v48c0 3.3-2.7 6-6 6H546c-3.3 0-6-2.7-6-6z" stroke="#000" stroke-opacity="0" stroke-width="3" fill="#fff" fill-opacity="0"/><use xlink:href="#m" transform="matrix(1,0,0,1,545,756.6666666666667) translate(108.45333333333333 32.5)"/><path d="M820 757.67c0-3.32 2.7-6 6-6h228c3.3 0 6 2.68 6 6v48c0 3.3-2.7 6-6 6H826c-3.3 0-6-2.7-6-6z" stroke="#000" stroke-opacity="0" stroke-width="3" fill="#fff" fill-opacity="0"/><use xlink:href="#n" transform="matrix(1,0,0,1,825,756.6666666666667) translate(109.22666666666667 32.5)"/><path d="M1080 362.5V394c0 3.3-2.7 6-6 6H806c-3.3 0-6 2.7-6 6v14" stroke="#ef8d22" stroke-width="2" fill="none"/><path d="M1081 362.53h-2v-1.03h2z" fill="#ef8d22"/><path d="M800 435.26L795.36 421h9.28z" stroke="#ef8d22" stroke-width="2" fill="#ef8d22"/><path d="M717.5 300h-15c-3.3 0-6 2.7-6 6v88c0 3.3-2.7 6-6 6H246c-3.3 0-6 2.7-6 6v14" stroke="#ef8d22" stroke-width="2" fill="none"/><path d="M718.5 301h-1.03v-2h1.03z" fill="#ef8d22"/><path d="M240 435.26L235.36 421h9.28z" stroke="#ef8d22" stroke-width="2" fill="#ef8d22"/><path d="M160 1006c0-3.3 2.7-6 6-6h148c3.3 0 6 2.7 6 6v108c0 3.3-2.7 6-6 6H166c-3.3 0-6-2.7-6-6z" stroke="#ef8d22" stroke-width="3" fill="#fff"/><use xlink:href="#j" transform="matrix(1,0,0,1,172,1012) translate(47.2 56)"/><path d="M440 1006c0-3.3 2.7-6 6-6h148c3.3 0 6 2.7 6 6v108c0 3.3-2.7 6-6 6H446c-3.3 0-6-2.7-6-6z" stroke="#ef8d22" stroke-width="3" fill="#fff"/><use xlink:href="#o" transform="matrix(1,0,0,1,452,1012) translate(56.93333333333334 56)"/><path d="M720 1006c0-3.3 2.7-6 6-6h148c3.3 0 6 2.7 6 6v108c0 3.3-2.7 6-6 6H726c-3.3 0-6-2.7-6-6z" stroke="#ef8d22" stroke-width="3" fill="#fff"/><use xlink:href="#k" transform="matrix(1,0,0,1,732,1012) translate(47.2 56)"/><path d="M1000 1006c0-3.3 2.7-6 6-6h148c3.3 0 6 2.7 6 6v108c0 3.3-2.7 6-6 6h-148c-3.3 0-6-2.7-6-6z" stroke="#ef8d22" stroke-width="3" fill="#fff"/><use xlink:href="#p" transform="matrix(1,0,0,1,1012,1012) translate(57.06666666666667 56)"/><path d="M260 1034.33c0-3.3 2.7-6 6-6h228c3.3 0 6 2.7 6 6v51.34c0 3.3-2.7 6-6 6H266c-3.3 0-6-2.7-6-6z" stroke="#000" stroke-opacity="0" stroke-width="3" fill="#fff" fill-opacity="0"/><use xlink:href="#l" transform="matrix(1,0,0,1,265,1033.3333333333333) translate(106.49333333333334 33.5)"/><path d="M540 1037.67c0-3.32 2.7-6 6-6h228c3.3 0 6 2.68 6 6v48c0 3.3-2.7 6-6 6H546c-3.3 0-6-2.7-6-6z" stroke="#000" stroke-opacity="0" stroke-width="3" fill="#fff" fill-opacity="0"/><use xlink:href="#m" transform="matrix(1,0,0,1,545,1036.6666666666667) translate(108.45333333333333 32.5)"/><path d="M820 1037.67c0-3.32 2.7-6 6-6h228c3.3 0 6 2.68 6 6v48c0 3.3-2.7 6-6 6H826c-3.3 0-6-2.7-6-6z" stroke="#000" stroke-opacity="0" stroke-width="3" fill="#fff" fill-opacity="0"/><use xlink:href="#n" transform="matrix(1,0,0,1,825,1036.6666666666667) translate(109.22666666666667 32.5)"/><path d="M490 623.5c0-3.3 2.7-6 6-6h48c3.3 0 6 2.7 6 6v33c0 3.3-2.7 6-6 6h-48c-3.3 0-6-2.7-6-6z" stroke="#ef8d22" stroke-width="3" fill="#fff"/><use xlink:href="#q" transform="matrix(1,0,0,1,502,629.5) translate(11.053333333333335 20)"/><path d="M800 562.5V634c0 3.3-2.7 6-6 6H570" stroke="#ef8d22" stroke-width="2" fill="none"/><path d="M801 562.53h-2v-1.03h2z" fill="#ef8d22"/><path d="M554.74 640l14.26-4.64v9.28z" stroke="#ef8d22" stroke-width="2" fill="#ef8d22"/><path d="M240 562.5V634c0 3.3 2.7 6 6 6h224" stroke="#ef8d22" stroke-width="2" fill="none"/><path d="M241 562.53h-2v-1.03h2z" fill="#ef8d22"/><path d="M485.26 640L471 644.64v-9.28z" stroke="#ef8d22" stroke-width="2" fill="#ef8d22"/><path d="M520 665v35" stroke="#ef8d22" stroke-width="2" fill="none"/><path d="M521 665.03h-2V664h2z" fill="#ef8d22"/><path d="M520 715.26L515.36 701h9.28z" stroke="#ef8d22" stroke-width="2" fill="#ef8d22"/><path d="M1050 903.5c0-3.3 2.7-6 6-6h48c3.3 0 6 2.7 6 6v33c0 3.3-2.7 6-6 6h-48c-3.3 0-6-2.7-6-6z" stroke="#ef8d22" stroke-width="3" fill="#fff"/><use xlink:href="#r" transform="matrix(1,0,0,1,1062,909.5) translate(5.120000000000001 20)"/><path d="M1080 842.5v35" stroke="#ef8d22" stroke-width="2" fill="none"/><path d="M1081 842.53h-2v-1.03h2z" fill="#ef8d22"/><path d="M1080 892.76l-4.64-14.26h9.28z" stroke="#ef8d22" stroke-width="2" fill="#ef8d22"/><path d="M240 842.5V914c0 3.3 2.7 6 6 6h784" stroke="#ef8d22" stroke-width="2" fill="none"/><path d="M241 842.53h-2v-1.03h2z" fill="#ef8d22"/><path d="M1045.26 920l-14.26 4.64v-9.28z" stroke="#ef8d22" stroke-width="2" fill="#ef8d22"/><path d="M1080 945v35" stroke="#ef8d22" stroke-width="2" fill="none"/><path d="M1081 945.03h-2V944h2z" fill="#ef8d22"/><path d="M1080 995.26l-4.64-14.26h9.28z" stroke="#ef8d22" stroke-width="2" fill="#ef8d22"/><defs><path fill="#0c7cba" d="M784-619c-7 93 20 192-30 248 50 55 30 156 30 250C784-54 730 0 663 0H178C110 0 57-54 57-121c0-94-20-195 30-250-48-53-30-139-30-228 0-68 53-122 121-122h485c56 0 106 50 121 102zm-82 498v-170c0-21-18-39-39-39H178c-21 0-39 18-39 39v170c0 21 18 39 39 39h485c21 0 39-18 39-39zm0-319v-158c0-21-18-39-39-39H178c-21 0-39 18-39 39v158c0 21 18 39 39 39h485c21 0 39-18 39-39" id="s"/><g id="a"><use transform="matrix(0.026666666666666665,0,0,0.026666666666666665,0,0)" xlink:href="#s"/><use transform="matrix(0.026666666666666665,0,0,0.026666666666666665,22.24,0)" xlink:href="#s"/><use transform="matrix(0.026666666666666665,0,0,0.026666666666666665,44.48,0)" xlink:href="#s"/></g><path fill="#0c7cba" d="M1-495l189-225h112V0h-83v-628c-27 34-82 97-111 133H1" id="t"/><path fill="#0c7cba" d="M178-415h485c67 0 121 53 121 121v173C784-54 730 0 663 0H178C110 0 57-54 57-121v-478c0-68 53-122 121-122h480v83H178c-21 0-39 18-39 39v144c0 22 18 40 39 40zm524 294v-173c0-21-18-39-39-39H139v212c0 21 18 39 39 39h485c21 0 39-18 39-39" id="u"/><g id="b"><use transform="matrix(0.026666666666666665,0,0,0.026666666666666665,0,0)" xlink:href="#t"/><use transform="matrix(0.026666666666666665,0,0,0.026666666666666665,10.426666666666666,0)" xlink:href="#u"/></g><path fill="#0c7cba" d="M139-599v147c0 22 18 40 39 40h485c67 0 121 53 121 121v170C784-54 730 0 663 0H178C101-2 47-63 57-150h82c-5 38 7 68 39 68h485c21 0 39-18 39-39v-170c0-21-18-39-39-39H57v-391h727v83H178c-21 0-39 18-39 39" id="v"/><path fill="#0c7cba" d="M590-268h112v82H590V0h-82v-186H6v-92c165-149 328-293 492-443h92v453zm-82-322L111-268h397v-322" id="w"/><g id="c"><use transform="matrix(0.026666666666666665,0,0,0.026666666666666665,0,0)" xlink:href="#v"/><use transform="matrix(0.026666666666666665,0,0,0.026666666666666665,22.133333333333333,0)" xlink:href="#w"/></g><path fill="#0c7cba" d="M178-721h485c67 0 121 54 121 122v169c0 67-54 121-121 121H178c-21 0-39 18-39 39v149c0 21 18 39 39 39h606V0H57v-270c0-68 53-121 121-121h485c21 0 39-18 39-39v-169c0-21-18-39-39-39H178c-32 1-44 30-39 67H57c-9-88 44-150 121-150" id="x"/><g id="d"><use transform="matrix(0.026666666666666665,0,0,0.026666666666666665,0,0)" xlink:href="#x"/><use transform="matrix(0.026666666666666665,0,0,0.026666666666666665,22.133333333333333,0)" xlink:href="#w"/></g><path fill="#0c7cba" d="M576-233v82H59v-82h517zm0-200v82H59v-82h517" id="y"/><use transform="matrix(0.026666666666666665,0,0,0.026666666666666665,0,0)" xlink:href="#y" id="e"/><path fill="#0c7cba" d="M423-614l27 79-146 47c24 35 62 87 90 125-27 19-41 31-66 48l-91-123-90 123c-27-20-42-29-67-47l90-126-145-47 24-79 147 49v-154h82v153" id="z"/><use transform="matrix(0.026666666666666665,0,0,0.026666666666666665,0,0)" xlink:href="#z" id="f"/><path fill="#0c7cba" d="M169-490h82v153h156v82H251v155h-82v-155H17v-82h152v-153" id="A"/><use transform="matrix(0.026666666666666665,0,0,0.026666666666666665,0,0)" xlink:href="#A" id="g"/><path fill="#0c7cba" d="M715-720v81H139v238h463v82H139v238h576V0H58v-720h657" id="B"/><path fill="#0c7cba" d="M562-580h82v459C644-54 590 0 522 0H174C107 0 53-54 53-121v-459h82v459c0 21 18 39 39 39h348c22 0 40-18 40-39v-459" id="C"/><path fill="#0c7cba" d="M172-82h470V0H172C105 0 51-54 51-121v-338c0-67 54-121 121-121h468v82H172c-21 0-39 18-39 39v338c0 21 18 39 39 39" id="D"/><path fill="#0c7cba" d="M52-770h82v649c1 58 83 34 137 39V0h-98C106 0 52-54 52-121v-649" id="E"/><path fill="#0c7cba" d="M52 0v-580h82V0H52zm0-770h82v82H52v-82" id="F"/><path fill="#0c7cba" d="M532-770h82V0H145C77 0 23-54 23-121v-338c0-67 54-121 122-121h387v-190zM145-82h348c21 0 39-18 39-39v-338c0-21-18-39-39-39H145c-21 0-39 18-39 39v338c0 21 18 39 39 39" id="G"/><path fill="#0c7cba" d="M141-720v140H59v-140h82" id="H"/><path fill="#0c7cba" d="M517-580c70 1 125 56 122 129h-83c3-27-15-46-39-47H169c-55 1-39 76-39 128 0 21 18 39 39 39h348c68 0 122 54 122 121v89C639-54 585 0 517 0H169C100-1 45-56 48-129h82c-3 27 15 46 39 47h348c55-1 39-76 39-128 0-21-18-39-39-39H169c-67 0-121-54-121-121v-89c0-67 54-121 121-121h348" id="I"/><g id="h"><use transform="matrix(0.026666666666666665,0,0,0.026666666666666665,0,0)" xlink:href="#B"/><use transform="matrix(0.026666666666666665,0,0,0.026666666666666665,20.426666666666666,0)" xlink:href="#C"/><use transform="matrix(0.026666666666666665,0,0,0.026666666666666665,38.42666666666666,0)" xlink:href="#D"/><use transform="matrix(0.026666666666666665,0,0,0.026666666666666665,56.959999999999994,0)" xlink:href="#E"/><use transform="matrix(0.026666666666666665,0,0,0.026666666666666665,65.01333333333332,0)" xlink:href="#F"/><use transform="matrix(0.026666666666666665,0,0,0.026666666666666665,70.55999999999999,0)" xlink:href="#G"/><use transform="matrix(0.026666666666666665,0,0,0.026666666666666665,88.34666666666665,0)" xlink:href="#H"/><use transform="matrix(0.026666666666666665,0,0,0.026666666666666665,94.31999999999998,0)" xlink:href="#I"/></g><path fill="#0c7cba" d="M178-720h480c67 0 120 53 120 120V0h-81v-263H139V0H58v-600c0-67 53-120 120-120zm-39 376h558v-256c0-21-18-39-39-39H178c-21 0-39 18-39 39v256" id="J"/><path fill="#0c7cba" d="M631 107c0 68-53 122-121 122H148v-83h362c60-2 33-90 39-146H162C95 0 41-54 41-121v-338c0-67 54-121 121-121h348c68 0 121 54 121 121v566zM162-82h348c21 0 39-18 39-39v-338c0-21-18-39-39-39H162c-21 0-39 18-39 39v338c0 21 18 39 39 39" id="K"/><path fill="#0c7cba" d="M172-580h348c68 0 122 54 122 121v338C642-54 588 0 520 0H172C105 0 51-54 51-121v-338c0-67 54-121 121-121zm348 82H172c-21 0-39 18-39 39v338c0 21 18 39 39 39h348c22 0 39-18 39-39v-338c0-21-17-39-39-39" id="L"/><path fill="#0c7cba" d="M173-580h326v82H173c-21 0-39 18-39 39V0H52v-459c0-67 54-121 121-121" id="M"/><path fill="#0c7cba" d="M386-498H135v377c0 21 18 39 39 39h212V0H174C106 0 53-54 53-121v-649h82v190h251v82" id="N"/><path fill="#0c7cba" d="M524-580c66 0 121 54 121 121V0h-82v-459c0-21-18-39-39-39H176c-22 0-40 18-40 39V0H54v-770h82v190h388" id="O"/><path fill="#0c7cba" d="M820-580c68 0 121 54 121 121V0h-81v-459c0-21-18-39-40-39H579c-22 0-39 18-39 39V0h-83v-459c0-21-18-39-39-39H176c-21 0-39 18-39 39V0H54v-580h766" id="P"/><g id="i"><use transform="matrix(0.026666666666666665,0,0,0.026666666666666665,0,0)" xlink:href="#J"/><use transform="matrix(0.026666666666666665,0,0,0.026666666666666665,22.293333333333333,0)" xlink:href="#E"/><use transform="matrix(0.026666666666666665,0,0,0.026666666666666665,30.346666666666664,0)" xlink:href="#K"/><use transform="matrix(0.026666666666666665,0,0,0.026666666666666665,48.02666666666666,0)" xlink:href="#L"/><use transform="matrix(0.026666666666666665,0,0,0.026666666666666665,66.21333333333332,0)" xlink:href="#M"/><use transform="matrix(0.026666666666666665,0,0,0.026666666666666665,79.86666666666666,0)" xlink:href="#F"/><use transform="matrix(0.026666666666666665,0,0,0.026666666666666665,85.41333333333333,0)" xlink:href="#N"/><use transform="matrix(0.026666666666666665,0,0,0.026666666666666665,96.48,0)" xlink:href="#O"/><use transform="matrix(0.026666666666666665,0,0,0.026666666666666665,114.29333333333332,0)" xlink:href="#P"/></g><g id="j"><use transform="matrix(0.026666666666666665,0,0,0.026666666666666665,0,0)" xlink:href="#v"/><use transform="matrix(0.026666666666666665,0,0,0.026666666666666665,22.133333333333333,0)" xlink:href="#w"/></g><g id="k"><use transform="matrix(0.026666666666666665,0,0,0.026666666666666665,0,0)" xlink:href="#x"/><use transform="matrix(0.026666666666666665,0,0,0.026666666666666665,22.133333333333333,0)" xlink:href="#w"/></g><use transform="matrix(0.026666666666666665,0,0,0.026666666666666665,0,0)" xlink:href="#y" id="l"/><use transform="matrix(0.026666666666666665,0,0,0.026666666666666665,0,0)" xlink:href="#z" id="m"/><use transform="matrix(0.026666666666666665,0,0,0.026666666666666665,0,0)" xlink:href="#A" id="n"/><use transform="matrix(0.026666666666666665,0,0,0.026666666666666665,0,0)" xlink:href="#x" id="o"/><use transform="matrix(0.026666666666666665,0,0,0.026666666666666665,0,0)" xlink:href="#u" id="p"/><path fill="#0c7cba" d="M6-106l506-614v104L6 0v-106" id="Q"/><use transform="matrix(0.026666666666666665,0,0,0.026666666666666665,0,0)" xlink:href="#Q" id="q"/><path fill="#0c7cba" d="M137 0v-108l728-613v107zm33-720h94c68 0 122 54 122 122v84c0 67-54 121-122 121h-94c-68 0-122-54-122-121v-84c0-68 54-122 122-122zm-22 266h138c64-4 39-105 39-165 0-22-18-39-39-39H148c-64 4-39 105-39 165 0 21 18 39 39 39zm568 128h95c67 0 121 54 121 121v85C932-53 878 1 811 1h-95c-68 0-121-54-121-121v-85c0-67 53-121 121-121zM695-60h137c64-5 39-105 39-166 0-21-18-39-39-39H695c-64 5-39 105-39 166 0 21 18 39 39 39" id="R"/><use transform="matrix(0.026666666666666665,0,0,0.026666666666666665,0,0)" xlink:href="#R" id="r"/></defs></g></svg>